<svg xmlns="http://www.w3.org/2000/svg" xmlns:xlink="http://www.w3.org/1999/xlink" width="260" height="40" viewBox="0 0 260 40"><defs><style>.a{fill:#0b3b6f;}.b{fill:#fff;}.c{fill:none;}.d,.e{stroke:none;}.e{fill:#2e98cf;}.f{filter:url(#a);}</style><filter id="a"><feOffset input="SourceAlpha"/><feGaussianBlur stdDeviation="15" result="b"/><feFlood flood-color="#0a4b90" result="c"/><feComposite operator="out" in="SourceGraphic" in2="b"/><feComposite operator="in" in="c"/><feComposite operator="in" in2="SourceGraphic"/></filter></defs><g data-type="innerShadowGroup"><g class="a" transform="translate(-49)"><path class="d" d="M 297.2107238769531 39.5 L 60.78927612304688 39.5 L 49.57677459716797 20 L 60.78927612304688 0.5 L 297.2107238769531 0.5 L 308.4232177734375 20 L 297.2107238769531 39.5 Z"/><path class="d" d="M 61.07852172851562 1 L 50.15350341796875 20 L 61.07852172851562 39 L 296.9214782714844 39 L 307.8464965820312 20 L 296.9214782714844 1 L 61.07852172851562 1 M 60.5 0 L 297.5 0 L 309 20 L 297.5 40 L 60.5 40 L 49 20 L 60.5 0 Z"/></g><g class="f" transform="matrix(1, 0, 0, 1, 0, 0)"><g class="b" transform="translate(-49)"><path class="d" d="M 297.2107238769531 39.5 L 60.78927612304688 39.5 L 49.57677459716797 20 L 60.78927612304688 0.5 L 297.2107238769531 0.5 L 308.4232177734375 20 L 297.2107238769531 39.5 Z"/><path class="d" d="M 61.07852172851562 1 L 50.15350341796875 20 L 61.07852172851562 39 L 296.9214782714844 39 L 307.8464965820312 20 L 296.9214782714844 1 L 61.07852172851562 1 M 60.5 0 L 297.5 0 L 309 20 L 297.5 40 L 60.5 40 L 49 20 L 60.5 0 Z"/></g></g><g class="c" transform="translate(-49)"><path class="d" d="M 297.2107238769531 39.5 L 60.78927612304688 39.5 L 49.57677459716797 20 L 60.78927612304688 0.5 L 297.2107238769531 0.5 L 308.4232177734375 20 L 297.2107238769531 39.5 Z"/><path class="e" d="M 61.07852172851562 1 L 50.15350341796875 20 L 61.07852172851562 39 L 296.9214782714844 39 L 307.8464965820312 20 L 296.9214782714844 1 L 61.07852172851562 1 M 60.5 0 L 297.5 0 L 309 20 L 297.5 40 L 60.5 40 L 49 20 L 60.5 0 Z"/></g></g></svg>