<svg xmlns="http://www.w3.org/2000/svg" xmlns:xlink="http://www.w3.org/1999/xlink" width="200" height="40" viewBox="0 0 200 40"><defs><style>.a{fill:#0b3b6f;}.b{fill:#fff;}.c{fill:none;}.d,.e{stroke:none;}.e{fill:#2e98cf;}.f{filter:url(#a);}</style><filter id="a"><feOffset input="SourceAlpha"/><feGaussianBlur stdDeviation="15" result="b"/><feFlood flood-color="#0a4b90" result="c"/><feComposite operator="out" in="SourceGraphic" in2="b"/><feComposite operator="in" in="c"/><feComposite operator="in" in2="SourceGraphic"/></filter></defs><g transform="translate(-181 -15)"><g data-type="innerShadowGroup"><g class="a" transform="translate(132 15)"><path class="d" d="M 237.2107391357422 39.5 L 60.78925323486328 39.5 L 49.57675552368164 20 L 60.78925323486328 0.5 L 237.2107391357422 0.5 L 248.4232482910156 20 L 237.2107391357422 39.5 Z"/><path class="d" d="M 61.07852172851562 1 L 50.15351867675781 20 L 61.07852172851562 39 L 236.9214782714844 39 L 247.8464813232422 20 L 236.9214782714844 1 L 61.07852172851562 1 M 60.5 0 L 237.5 0 L 249 20 L 237.5 40 L 60.5 40 L 49 20 L 60.5 0 Z"/></g><g class="f" transform="matrix(1, 0, 0, 1, 181, 15)"><g class="b" transform="translate(-49)"><path class="d" d="M 237.2107391357422 39.5 L 60.78925323486328 39.5 L 49.57675552368164 20 L 60.78925323486328 0.5 L 237.2107391357422 0.5 L 248.4232482910156 20 L 237.2107391357422 39.5 Z"/><path class="d" d="M 61.07852172851562 1 L 50.15351867675781 20 L 61.07852172851562 39 L 236.9214782714844 39 L 247.8464813232422 20 L 236.9214782714844 1 L 61.07852172851562 1 M 60.5 0 L 237.5 0 L 249 20 L 237.5 40 L 60.5 40 L 49 20 L 60.5 0 Z"/></g></g><g class="c" transform="translate(132 15)"><path class="d" d="M 237.2107391357422 39.5 L 60.78925323486328 39.5 L 49.57675552368164 20 L 60.78925323486328 0.5 L 237.2107391357422 0.5 L 248.4232482910156 20 L 237.2107391357422 39.5 Z"/><path class="e" d="M 61.07852172851562 1 L 50.15351867675781 20 L 61.07852172851562 39 L 236.9214782714844 39 L 247.8464813232422 20 L 236.9214782714844 1 L 61.07852172851562 1 M 60.5 0 L 237.5 0 L 249 20 L 237.5 40 L 60.5 40 L 49 20 L 60.5 0 Z"/></g></g></g></svg>