<svg xmlns="http://www.w3.org/2000/svg" width="40" height="40" viewBox="0 0 40 40"><defs><style>.a,.b{fill:#0a3e77;}.a{stroke:#707070;opacity:0;}.c{stroke:none;}.d{fill:none;}</style></defs><g transform="translate(-110 -271)"><g class="a" transform="translate(110 271)"><rect class="c" width="40" height="40"/><rect class="d" x="0.5" y="0.5" width="39" height="39"/></g><path class="b" d="M7.421,73.13H3.655V68.368L0,67.7V82.988L3.655,81.77V76.453h5.87l3.212-4.32L8.528,69.918Zm19.051,1L35,68.7,8.418,51.2h-3.1L1.108,57.846v2.215l23.37,14.177h1.994Zm-3.212,1.108L3.1,62.165,1,64.38l23.37,14.177h2.1l1.108-1.108,1.108-3.212s-3.1,2.215-3.212,2.215a18.909,18.909,0,0,0-2.215-1.218Z" transform="translate(112.5 223.906)"/></g></svg>